<svg id="Layer_1" data-name="Layer 1" xmlns="http://www.w3.org/2000/svg" viewBox="0 0 480 480"><defs><style>.cls-1{fill:#0f9f49;}.cls-2{fill:#fff;}</style></defs><path class="cls-1" d="M441,295.84,447.84,362,387,389.12l-27,60.72L293.84,443,240,482l-53.84-39L120,449.84,92.88,389,32.16,362,39,295.84,0,242l39-53.84L32.16,122,93,94.88l27-60.72L186.16,41,240,2l53.84,39L360,34.16,387.12,95l60.72,27L441,188.16,480,242Z" transform="translate(0 -2)"/><path class="cls-2" d="M350.4,177.6,327.76,155,192,290.72l-45.28-45.2-22.64,22.56L192,336Z" transform="translate(0 -2)"/></svg>